<svg width="30" height="30" viewBox="0 0 30 30" fill="none" xmlns="http://www.w3.org/2000/svg">
<path d="M14.5629 5.76203H15.4741V7.37336C17.1046 7.42451 18.4282 7.7666 19.4449 8.39962L18.9653 9.75199C18.5753 9.53459 18.0605 9.33956 17.4211 9.16692C16.7881 8.98789 16.1391 8.88238 15.4741 8.85041V13.7228L16.4716 13.9625C17.6225 14.2375 18.4953 14.6787 19.09 15.2861C19.6846 15.8872 19.982 16.744 19.982 17.8566C19.982 19.2313 19.5791 20.2832 18.7735 21.0121C17.9742 21.741 16.8744 22.1407 15.4741 22.211V23.8703H14.5629V22.211C13.5399 22.179 12.6255 22.0512 11.8198 21.8274C11.0206 21.5972 10.3811 21.335 9.90158 21.0409L10.4003 19.6597C11.6919 20.2928 13.0795 20.6508 14.5629 20.734V15.171L13.153 14.8162C10.9982 14.2727 9.92076 13.1217 9.92076 11.3633C9.92076 10.1037 10.33 9.14774 11.1484 8.49553C11.9669 7.83694 13.1051 7.46927 14.5629 7.39254V5.76203ZM14.5629 13.5022V8.86C12.6191 8.9751 11.6472 9.77117 11.6472 11.2482C11.6472 11.7917 11.823 12.2297 12.1747 12.5622C12.5328 12.8883 13.0667 13.1377 13.7764 13.3103L14.5629 13.5022ZM15.4741 15.4012V20.7435C17.3348 20.6476 18.2651 19.7045 18.2651 17.9141C18.2651 17.3003 18.0989 16.8047 17.7664 16.4275C17.4403 16.0438 16.8424 15.7433 15.9728 15.5259L15.4741 15.4012Z" fill="white"/>
<circle cx="15" cy="15" r="13.5" stroke="white" stroke-width="3"/>
</svg>
