<svg width="144" height="26" viewBox="0 0 144 26" fill="none" xmlns="http://www.w3.org/2000/svg">
<path d="M135.14 22.28V20H131.08C130.413 20 129.847 19.7667 129.38 19.3C128.913 18.8333 128.68 18.2667 128.68 17.6V17.04H130.3V17.6C130.3 17.8133 130.373 18 130.52 18.16C130.68 18.3067 130.867 18.38 131.08 18.38H135.14V13.62H131.08C130.413 13.62 129.847 13.3867 129.38 12.92C128.913 12.44 128.68 11.8733 128.68 11.22V8C128.68 7.33333 128.913 6.76667 129.38 6.3C129.847 5.83333 130.413 5.6 131.08 5.6H135.14V3.3H136.78V5.6H140.8C141.467 5.6 142.04 5.83333 142.52 6.3C143.013 6.76667 143.247 7.33333 143.22 8L143.2 8.56H141.58V8.02C141.58 7.80667 141.5 7.62 141.34 7.46C141.193 7.3 141.013 7.22 140.8 7.22H136.78V11.96H140.8C141.467 11.96 142.04 12.2 142.52 12.68C143 13.1467 143.24 13.7133 143.24 14.38V17.6C143.24 18.2667 143.007 18.8333 142.54 19.3C142.073 19.7667 141.507 20 140.84 20H136.78V22.28H135.14ZM131.08 11.98H135.14V7.22H131.08C130.867 7.22 130.68 7.3 130.52 7.46C130.373 7.60667 130.3 7.78667 130.3 8V11.22C130.3 11.4333 130.373 11.6133 130.52 11.76C130.68 11.9067 130.867 11.98 131.08 11.98ZM136.78 18.38L140.82 18.36C141.02 18.36 141.193 18.2867 141.34 18.14C141.5 17.98 141.58 17.7933 141.58 17.58V14.38C141.58 14.1667 141.5 13.9867 141.34 13.84C141.18 13.68 141 13.6 140.8 13.6H136.78V18.38Z" fill="#24FF00" fill-opacity="0.75"/>
<path d="M2.9 20C2.22 20 1.64 19.7667 1.16 19.3C0.693333 18.82 0.46 18.2467 0.46 17.58V10.82C0.46 10.1533 0.693333 9.58667 1.16 9.12C1.64 8.64 2.22 8.4 2.9 8.4H10.64V4.6H12.28V20H2.9ZM2.9 18.36H9.86C10.0733 18.36 10.2533 18.2867 10.4 18.14C10.56 17.98 10.64 17.7933 10.64 17.58V10.82C10.64 10.6067 10.56 10.4267 10.4 10.28C10.2533 10.12 10.0733 10.04 9.86 10.04H2.9C2.68667 10.04 2.5 10.12 2.34 10.28C2.19333 10.4267 2.12 10.6067 2.12 10.82V17.58C2.12 17.7933 2.19333 17.98 2.34 18.14C2.5 18.2867 2.68667 18.36 2.9 18.36ZM16.3892 20C15.7226 20 15.1492 19.7667 14.6692 19.3C14.2026 18.82 13.9692 18.2467 13.9692 17.58V10.82C13.9692 10.1533 14.2026 9.58667 14.6692 9.12C15.1492 8.64 15.7226 8.4 16.3892 8.4H23.3492C24.0292 8.4 24.6026 8.64 25.0692 9.12C25.5492 9.58667 25.7892 10.1533 25.7892 10.82V15.02H15.6092V17.58C15.6092 17.7933 15.6826 17.98 15.8292 18.14C15.9892 18.2867 16.1759 18.36 16.3892 18.36H25.7892V20H16.3892ZM15.6092 13.38H24.1292V10.82C24.1292 10.6067 24.0492 10.4267 23.8892 10.28C23.7426 10.12 23.5626 10.04 23.3492 10.04H16.3892C16.1759 10.04 15.9892 10.12 15.8292 10.28C15.6826 10.4267 15.6092 10.6067 15.6092 10.82V13.38ZM33.2263 20L26.8263 8.4H28.7463L34.1863 18.4L39.6263 8.4H41.5463L35.1263 20H33.2263ZM43.287 20V18.36H44.927V20H43.287ZM47.5444 20V7.02C47.5444 6.34 47.7777 5.76667 48.2444 5.3C48.711 4.83333 49.2844 4.6 49.9644 4.6H54.2044V6.24H49.9644C49.751 6.24 49.5644 6.32 49.4044 6.48C49.2577 6.62667 49.1844 6.80667 49.1844 7.02V8.4H54.2044V10.04H49.1844V20H47.5444ZM55.6689 20V8.4H57.3089V20H55.6689ZM55.6689 6.24V4.6H57.3089V6.24H55.6689ZM59.5761 20V8.4H68.9761C69.6428 8.4 70.2094 8.64 70.6761 9.12C71.1561 9.58667 71.3961 10.1533 71.3961 10.82V20H69.7561V10.82C69.7561 10.6067 69.6761 10.4267 69.5161 10.28C69.3694 10.12 69.1894 10.04 68.9761 10.04H62.0161C61.8028 10.04 61.6161 10.12 61.4561 10.28C61.2961 10.4267 61.2161 10.6067 61.2161 10.82V20H59.5761ZM75.8819 20C75.2152 20 74.6419 19.7667 74.1619 19.3C73.6952 18.82 73.4619 18.2467 73.4619 17.58V13.38H83.6219V10.82C83.6219 10.6067 83.5419 10.4267 83.3819 10.28C83.2352 10.12 83.0552 10.04 82.8419 10.04H73.4619V8.4H82.8419C83.5219 8.4 84.0952 8.64 84.5619 9.12C85.0419 9.58667 85.2819 10.1533 85.2819 10.82V20H75.8819ZM75.8819 18.36H83.6219V15.02H75.1019V17.58C75.1019 17.7933 75.1752 17.98 75.3219 18.14C75.4819 18.2867 75.6685 18.36 75.8819 18.36ZM87.0956 20V8.4H96.4956C97.1623 8.4 97.729 8.64 98.1956 9.12C98.6756 9.58667 98.9156 10.1533 98.9156 10.82V20H97.2756V10.82C97.2756 10.6067 97.1956 10.4267 97.0356 10.28C96.889 10.12 96.709 10.04 96.4956 10.04H89.5356C89.3223 10.04 89.1356 10.12 88.9756 10.28C88.8156 10.4267 88.7356 10.6067 88.7356 10.82V20H87.0956ZM102.991 20C102.324 20 101.751 19.7667 101.271 19.3C100.804 18.82 100.571 18.2467 100.571 17.58V10.82C100.571 10.1533 100.804 9.58667 101.271 9.12C101.751 8.64 102.324 8.4 102.991 8.4H112.351V10.04H102.991C102.777 10.04 102.591 10.12 102.431 10.28C102.284 10.4267 102.211 10.6067 102.211 10.82V17.58C102.211 17.7933 102.284 17.98 102.431 18.14C102.591 18.2867 102.777 18.36 102.991 18.36H112.391V20H102.991ZM116.389 20C115.723 20 115.149 19.7667 114.669 19.3C114.203 18.82 113.969 18.2467 113.969 17.58V10.82C113.969 10.1533 114.203 9.58667 114.669 9.12C115.149 8.64 115.723 8.4 116.389 8.4H123.349C124.029 8.4 124.603 8.64 125.069 9.12C125.549 9.58667 125.789 10.1533 125.789 10.82V15.02H115.609V17.58C115.609 17.7933 115.683 17.98 115.829 18.14C115.989 18.2867 116.176 18.36 116.389 18.36H125.789V20H116.389ZM115.609 13.38H124.129V10.82C124.129 10.6067 124.049 10.4267 123.889 10.28C123.743 10.12 123.563 10.04 123.349 10.04H116.389C116.176 10.04 115.989 10.12 115.829 10.28C115.683 10.4267 115.609 10.6067 115.609 10.82V13.38Z" fill="black"/>
</svg>
